[Header]
FileType HTR
DataType HTRS
FileVersion 1
NumSegments 64
NumFrames 4
DataFrameRate 24
EulerRotationOrder ZYX
CalibrationUnits mm
RotationUnits Degrees
GlobalAxisofGravity Y
BoneLengthAxis Y
ScaleFactor 1.0
[SegmentNames&Hierarchy]
Hips	GLOBAL
Spine	Hips
Spine1	Spine
Spine2	Spine1
Neck	Spine2
Head	Neck
LeftEye	Head
RightEye	Head
LeftShoulder	Spine2
LeftArm	LeftShoulder
LeftForeArm	LeftArm
LeftHand	LeftForeArm
LeftHandThumb1	LeftHand
LeftHandThumb2	LeftHandThumb1
LeftHandThumb3	LeftHandThumb2
LeftHandThumb4	LeftHandThumb3
LeftHandIndex1	LeftHand
LeftHandIndex2	LeftHandIndex1
LeftHandIndex3	LeftHandIndex2
LeftHandIndex4	LeftHandIndex3
LeftHandMiddle1	LeftHand
LeftHandMiddle2	LeftHandMiddle1
LeftHandMiddle3	LeftHandMiddle2
LeftHandMiddle4	LeftHandMiddle3
LeftHandRing1	LeftHand
LeftHandRing2	LeftHandRing1
LeftHandRing3	LeftHandRing2
LeftHandRing4	LeftHandRing3
LeftHandPinky1	LeftHand
LeftHandPinky2	LeftHandPinky1
LeftHandPinky3	LeftHandPinky2
LeftHandPinky4	LeftHandPinky3
RightShoulder	Spine2
RightArm	RightShoulder
RightForeArm	RightArm
RightHand	RightForeArm
RightHandPinky1	RightHand
RightHandPinky2	RightHandPinky1
RightHandPinky3	RightHandPinky2
RightHandPinky4	RightHandPinky3
RightHandRing1	RightHand
RightHandRing2	RightHandRing1
RightHandRing3	RightHandRing2
RightHandRing4	RightHandRing3
RightHandMiddle1	RightHand
RightHandMiddle2	RightHandMiddle1
RightHandMiddle3	RightHandMiddle2
RightHandMiddle4	RightHandMiddle3
RightHandIndex1	RightHand
RightHandIndex2	RightHandIndex1
RightHandIndex3	RightHandIndex2
RightHandIndex4	RightHandIndex3
RightHandThumb1	RightHand
RightHandThumb2	RightHandThumb1
RightHandThumb3	RightHandThumb2
RightHandThumb4	RightHandThumb3
LeftUpLeg	Hips
LeftLeg	LeftUpLeg
LeftFoot	LeftLeg
LeftToeBase	LeftFoot
RightUpLeg	Hips
RightLeg	RightUpLeg
RightFoot	RightLeg
RightToeBase	RightFoot
[BasePosition]
Hips	0	0	0	0	0	0	1
Spine	0	0	0	0	0	0	1
Spine1	0	0	0	0	0	0	1
Spine2	0	0	0	0	0	0	1
Neck	0	0	0	0	0	0	1
Head	0	0	0	0	0	0	1
LeftEye	0	0	0	0	0	0	1
RightEye	0	0	0	0	0	0	1
LeftShoulder	0	0	0	0	0	0	1
LeftArm	0	0	0	0	0	0	1
LeftForeArm	0	0	0	0	0	0	1
LeftHand	0	0	0	0	0	0	1
LeftHandThumb1	0	0	0	0	0	0	1
LeftHandThumb2	0	0	0	0	0	0	1
LeftHandThumb3	0	0	0	0	0	0	1
LeftHandThumb4	0	0	0	0	0	0	1
LeftHandIndex1	0	0	0	0	0	0	1
LeftHandIndex2	0	0	0	0	0	0	1
LeftHandIndex3	0	0	0	0	0	0	1
LeftHandIndex4	0	0	0	0	0	0	1
LeftHandMiddle1	0	0	0	0	0	0	1
LeftHandMiddle2	0	0	0	0	0	0	1
LeftHandMiddle3	0	0	0	0	0	0	1
LeftHandMiddle4	0	0	0	0	0	0	1
LeftHandRing1	0	0	0	0	0	0	1
LeftHandRing2	0	0	0	0	0	0	1
LeftHandRing3	0	0	0	0	0	0	1
LeftHandRing4	0	0	0	0	0	0	1
LeftHandPinky1	0	0	0	0	0	0	1
LeftHandPinky2	0	0	0	0	0	0	1
LeftHandPinky3	0	0	0	0	0	0	1
LeftHandPinky4	0	0	0	0	0	0	1
RightShoulder	0	0	0	0	0	0	1
RightArm	0	0	0	0	0	0	1
RightForeArm	0	0	0	0	0	0	1
RightHand	0	0	0	0	0	0	1
RightHandPinky1	0	0	0	0	0	0	1
RightHandPinky2	0	0	0	0	0	0	1
RightHandPinky3	0	0	0	0	0	0	1
RightHandPinky4	0	0	0	0	0	0	1
RightHandRing1	0	0	0	0	0	0	1
RightHandRing2	0	0	0	0	0	0	1
RightHandRing3	0	0	0	0	0	0	1
RightHandRing4	0	0	0	0	0	0	1
RightHandMiddle1	0	0	0	0	0	0	1
RightHandMiddle2	0	0	0	0	0	0	1
RightHandMiddle3	0	0	0	0	0	0	1
RightHandMiddle4	0	0	0	0	0	0	1
RightHandIndex1	0	0	0	0	0	0	1
RightHandIndex2	0	0	0	0	0	0	1
RightHandIndex3	0	0	0	0	0	0	1
RightHandIndex4	0	0	0	0	0	0	1
RightHandThumb1	0	0	0	0	0	0	1
RightHandThumb2	0	0	0	0	0	0	1
RightHandThumb3	0	0	0	0	0	0	1
RightHandThumb4	0	0	0	0	0	0	1
LeftUpLeg	0	0	0	0	0	0	1
LeftLeg	0	0	0	0	0	0	1
LeftFoot	0	0	0	0	0	0	1
LeftToeBase	0	0	0	0	0	0	1
RightUpLeg	0	0	0	0	0	0	1
RightLeg	0	0	0	0	0	0	1
RightFoot	0	0	0	0	0	0	1
RightToeBase	0	0	0	0	0	0	1
[Hips]
97	-84.70620728	948.6693726	1181.477051	-363.4553223	97.13773346	16.99165344	1.0
98	-74.69076538	934.3545532	1193.70813	-369.2774048	113.7654495	9.949830055	1.0
99	-74.69145203	926.2481079	1208.806152	-369.1299438	127.0321426	6.01467514	1.0
100	-79.83086395	914.1765747	1220.019775	-367.1240845	135.8360291	3.752700806	1.0
[Spine]
97	0	101.8159943	1.315000057	-0.2442876995	-0.03686972708	0.8387469053	1.0
98	0	101.8159943	1.315000057	-0.6415533423	2.316837549	0.2913981378	1.0
99	0	101.8159943	1.315000057	-1.054297566	5.186022758	-0.5416862369	1.0
100	0	101.8159943	1.315000057	-0.6977196932	7.426869392	-1.384301424	1.0
[Spine1]
97	0	100.8349991	-10.00800037	-0.4812378287	0.4049416184	1.017686486	1.0
98	0	100.8349991	-10.00800037	-1.292480111	5.393894196	-0.3652074337	1.0
99	0	100.8349991	-10.00800037	-2.231143951	11.24847412	-2.022541761	1.0
100	0	100.8349991	-10.00800037	-1.699275136	15.82282352	-3.716480494	1.0
[Spine2]
97	0	91	-13.73399925	-0.4812459648	0.4049576521	1.017687321	1.0
98	0	91	-13.73399925	-1.292479157	5.393875122	-0.3652194142	1.0
99	0	91	-13.73399925	-2.231144667	11.24848557	-2.022541761	1.0
100	0	91	-13.73399925	-1.699276686	15.82282734	-3.716484547	1.0
[Neck]
97	0	166.7169952	-25.16200066	8.030906677	-8.874286652	6.14561367	1.0
98	0	166.7169952	-25.16200066	3.800789595	-9.022850037	4.645435333	1.0
99	0	166.7169952	-25.16200066	0.4567460716	-5.396193027	3.284739971	1.0
100	0	166.7169952	-25.16200066	-1.669610262	-2.357101202	-1.07967186	1.0
[Head]
97	0	96.17900085	16.84999847	-21.25389481	-39.09576797	29.34887695	1.0
98	0	96.17900085	16.84999847	-18.72566223	-36.12382507	14.88748169	1.0
99	0	96.17900085	16.84999847	-18.7921505	-14.91850471	-5.519543171	1.0
100	0	96.17900085	16.84999847	-27.42077446	-2.285009623	-4.162307262	1.0
[LeftEye]
97	30.6760006	64.09500122	92.83599854	0	0	0	1.0
98	30.6760006	64.09500122	92.83599854	0	0	0	1.0
99	30.6760006	64.09500122	92.83599854	0	0	0	1.0
100	30.6760006	64.09500122	92.83599854	0	0	0	1.0
[RightEye]
97	-30.6760006	64.09500122	92.83499908	0	0	0	1.0
98	-30.6760006	64.09500122	92.83499908	0	0	0	1.0
99	-30.6760006	64.09500122	92.83499908	0	0	0	1.0
100	-30.6760006	64.09500122	92.83499908	0	0	0	1.0
[LeftShoulder]
97	45.70400238	109.4599991	-26.28000069	-0.2562257946	-5.742254257	3.214522123	1.0
98	45.70400238	109.4599991	-26.28000069	-0.05112013966	-0.1884617209	2.091908455	1.0
99	45.70400238	109.4599991	-26.28000069	0.006473647431	3.863483667	2.425225019	1.0
100	45.70400238	109.4599991	-26.28000069	0.2683894932	11.44205856	3.641087294	1.0
[LeftArm]
97	105.923996	-5.24600029	-22.32099915	-12.44643307	0.5617550611	-48.55152893	1.0
98	105.923996	-5.24600029	-22.32099915	0.6480855942	-10.1969471	-55.06443024	1.0
99	105.923996	-5.24600029	-22.32099915	16.64808273	-13.59464169	-64.9943161	1.0
100	105.923996	-5.24600029	-22.32099915	28.24897766	-10.17106152	-71.56793213	1.0
[LeftForeArm]
97	278.414978	-0.0009999999311	0	-541.1049805	-38.84170914	539.8956299	1.0
98	278.414978	-0.0009999999311	0	-540.4492188	-39.7634697	539.5131836	1.0
99	278.414978	-0.0009999999311	0	-540.4325562	-39.93493652	539.2758789	1.0
100	278.414978	-0.0009999999311	0	-541.0995483	-38.79153442	539.4081421	1.0
[LeftHand]
97	283.2879944	0	0	-21.40615273	1.722314954	19.74609184	1.0
98	283.2879944	0	0	-13.53354645	2.599334717	17.86977196	1.0
99	283.2879944	0	0	-5.986899853	0.6447623968	13.84966087	1.0
100	283.2879944	0	0	2.733386755	-3.14370203	11.72119808	1.0
[LeftHandThumb1]
97	24.6609993	-15.75	26.8239994	8.6388731	-7.629713058	24.76772308	1.0
98	24.6609993	-15.75	26.8239994	7.726231575	-9.025640488	24.90135384	1.0
99	24.6609993	-15.75	26.8239994	6.881154537	-10.33052826	25.06314278	1.0
100	24.6609993	-15.75	26.8239994	6.197977066	-11.42561722	25.26978683	1.0
[LeftHandThumb2]
97	32.29800034	-18.64699936	18.64699936	8.483819962	10.56933689	-11.45305443	1.0
98	32.29800034	-18.64699936	18.64699936	8.750545502	9.074941635	-13.4115324	1.0
99	32.29800034	-18.64699936	18.64699936	8.988259315	7.737486362	-15.3027935	1.0
100	32.29800034	-18.64699936	18.64699936	9.222097397	6.615534782	-16.89608383	1.0
[LeftHandThumb3]
97	26.52600098	-15.31499958	15.31499958	3.601811159e-06	-8.438974328e-05	-6.943767221e-05	1.0
98	26.52600098	-15.31499958	15.31499958	3.601811159e-06	-8.438974328e-05	-6.943767221e-05	1.0
99	26.52600098	-15.31499958	15.31499958	3.601811159e-06	-8.438974328e-05	-6.943767221e-05	1.0
100	26.52600098	-15.31499958	15.31499958	3.601811159e-06	-8.438974328e-05	-6.943767221e-05	1.0
[LeftHandThumb4]
97	19.54599953	-11.28499985	11.28499985	0	0	0	1.0
98	19.54599953	-11.28499985	11.28499985	0	0	0	1.0
99	19.54599953	-11.28499985	11.28499985	0	0	0	1.0
100	19.54599953	-11.28499985	11.28499985	0	0	0	1.0
[LeftHandIndex1]
97	91.09299469	-5.170999527	22.60099792	-1.349654794	-3.860279083	-31.49565315	1.0
98	91.09299469	-5.170999527	22.60099792	-1.291580796	-3.481329441	-29.6921463	1.0
99	91.09299469	-5.170999527	22.60099792	-1.24291575	-3.153607845	-28.23342514	1.0
100	91.09299469	-5.170999527	22.60099792	-1.201766968	-2.892276764	-27.07769012	1.0
[LeftHandIndex2]
97	36.76399994	0	0	-1.139903188	-2.691197872	-42.11437225	1.0
98	36.76399994	0	0	-1.111988187	-2.344050884	-39.67479706	1.0
99	36.76399994	0	0	-1.079561472	-2.071262121	-37.75075531	1.0
100	36.76399994	0	0	-1.047980309	-1.859647512	-36.25244522	1.0
[LeftHandIndex3]
97	28.83100128	0	0	-1.432096042e-06	3.907105395e-07	1.552835329e-06	1.0
98	28.83100128	0	0	-1.432096042e-06	3.907105395e-07	1.552835329e-06	1.0
99	28.83100128	0	0	-1.432096042e-06	3.907105395e-07	1.552835329e-06	1.0
100	28.83100128	0	0	-1.432096042e-06	3.907105395e-07	1.552835329e-06	1.0
[LeftHandIndex4]
97	23.92700005	0	0	0	0	0	1.0
98	23.92700005	0	0	0	0	0	1.0
99	23.92700005	0	0	0	0	0	1.0
100	23.92700005	0	0	0	0	0	1.0
[LeftHandMiddle1]
97	95.33399963	0	0	-1.733904958	-2.593393803	-38.9079895	1.0
98	95.33399963	0	0	-1.675842881	-2.331495762	-36.88899994	1.0
99	95.33399963	0	0	-1.621290803	-2.117509842	-35.22809982	1.0
100	95.33399963	0	0	-1.573489785	-1.948315859	-33.90609741	1.0
[LeftHandMiddle2]
97	36.98199844	0	0	-0.6886112094	-3.7263906	-38.82911301	1.0
98	36.98199844	0	0	-0.6973159313	-3.427614212	-36.37968063	1.0
99	36.98199844	0	0	-0.695076704	-3.189041615	-34.42510223	1.0
100	36.98199844	0	0	-0.6877348423	-3.004614592	-32.91316223	1.0
[LeftHandMiddle3]
97	29.50900078	0	0	0	-3.180554719e-15	-7.951386796e-16	1.0
98	29.50900078	0	0	0	-3.180554719e-15	-7.951386796e-16	1.0
99	29.50900078	0	0	0	-3.180554719e-15	-7.951386796e-16	1.0
100	29.50900078	0	0	0	-3.180554719e-15	-7.951386796e-16	1.0
[LeftHandMiddle4]
97	28.3390007	0	0	0	0	0	1.0
98	28.3390007	0	0	0	0	0	1.0
99	28.3390007	0	0	0	0	0	1.0
100	28.3390007	0	0	0	0	0	1.0
[LeftHandRing1]
97	91.04499817	-0.4390000105	-18.65100098	-3.500451803	3.150768995	-48.66960144	1.0
98	91.04499817	-0.4390000105	-18.65100098	-3.486560822	3.417846918	-46.63352585	1.0
99	91.04499817	-0.4390000105	-18.65100098	-3.465017557	3.630032301	-44.94247818	1.0
100	91.04499817	-0.4390000105	-18.65100098	-3.443926573	3.802314043	-43.58854675	1.0
[LeftHandRing2]
97	31.54000092	0	0	2.830582619	-2.805670977	-46.46276855	1.0
98	31.54000092	0	0	2.626228809	-2.772883654	-44.06208038	1.0
99	31.54000092	0	0	2.462118149	-2.740161896	-42.12116623	1.0
100	31.54000092	0	0	2.335319281	-2.710889339	-40.61182022	1.0
[LeftHandRing3]
97	29.37700081	0	0	1.590277359e-15	3.180554719e-15	-7.951386796e-16	1.0
98	29.37700081	0	0	1.590277359e-15	3.180554719e-15	-7.951386796e-16	1.0
99	29.37700081	0	0	1.590277359e-15	3.180554719e-15	-7.951386796e-16	1.0
100	29.37700081	0	0	1.590277359e-15	3.180554719e-15	-7.951386796e-16	1.0
[LeftHandRing4]
97	26.47500038	0	0	0	0	0	1.0
98	26.47500038	0	0	0	0	0	1.0
99	26.47500038	0	0	0	0	0	1.0
100	26.47500038	0	0	0	0	0	1.0
[LeftHandPinky1]
97	80.77799988	-4.887000084	-38.06099701	-4.206866264	8.552909851	-45.95715332	1.0
98	80.77799988	-4.887000084	-38.06099701	-4.20498085	8.975481987	-43.85083771	1.0
99	80.77799988	-4.887000084	-38.06099701	-4.192774296	9.317462921	-42.08627701	1.0
100	80.77799988	-4.887000084	-38.06099701	-4.17922163	9.603152275	-40.66004181	1.0
[LeftHandPinky2]
97	36	0	0	6.998980045	-2.840633869	-63.59213257	1.0
98	36	0	0	6.766700745	-3.048055649	-61.62326813	1.0
99	36	0	0	6.57117033	-3.211373806	-60.01792145	1.0
100	36	0	0	6.412585735	-3.336495638	-58.75141525	1.0
[LeftHandPinky3]
97	21.14200211	0	0	3.226109357e-06	2.925280342e-06	-5.739977951e-06	1.0
98	21.14200211	0	0	3.226109357e-06	2.925280342e-06	-5.739977951e-06	1.0
99	21.14200211	0	0	3.226109357e-06	2.925280342e-06	-5.739977951e-06	1.0
100	21.14200211	0	0	3.226109357e-06	2.925280342e-06	-5.739977951e-06	1.0
[LeftHandPinky4]
97	19.75699997	0	0	0	0	0	1.0
98	19.75699997	0	0	0	0	0	1.0
99	19.75699997	0	0	0	0	0	1.0
100	19.75699997	0	0	0	0	0	1.0
[RightShoulder]
97	-45.70000076	109.4620056	-26.28000069	3.384946346	14.15321255	-12.33412838	1.0
98	-45.70000076	109.4620056	-26.28000069	7.549734116	16.22322273	-18.54330444	1.0
99	-45.70000076	109.4620056	-26.28000069	9.19830513	18.87737465	-16.43990898	1.0
100	-45.70000076	109.4620056	-26.28000069	1.38709712	22.53495407	-6.830928326	1.0
[RightArm]
97	-105.9280014	-5.248000145	-22.32099915	-426.2486572	11.95105171	-367.0142212	1.0
98	-105.9280014	-5.248000145	-22.32099915	-448.8634338	20.4734745	-386.0802612	1.0
99	-105.9280014	-5.248000145	-22.32099915	-460.2757874	43.68528748	-425.6162109	1.0
100	-105.9280014	-5.248000145	-22.32099915	-373.3807983	75.53562164	-375.740448	1.0
[RightForeArm]
97	-278.414978	0	0	1.259679079	36.05167007	1.783656716	1.0
98	-278.414978	0	0	0.3494931459	37.02368546	1.455336332	1.0
99	-278.414978	0	0	-1.621019959	30.08339882	0.4459640086	1.0
100	-278.414978	0	0	-2.277162552	53.74370193	0.3598074913	1.0
[RightHand]
97	-283.2879944	0	0.0009999999311	-23.33982849	12.33135128	-3.240259171	1.0
98	-283.2879944	0	0.0009999999311	14.54266548	18.21567154	13.07411766	1.0
99	-283.2879944	0	0.0009999999311	28.09462547	19.70319939	27.55866814	1.0
100	-283.2879944	0	0.0009999999311	11.84408474	17.63588715	19.83931923	1.0
[RightHandPinky1]
97	-80.76699829	-4.885000229	-38.06000137	7.632208824	20.38079834	134.3935852	1.0
98	-80.76699829	-4.885000229	-38.06000137	7.585018158	20.01514244	134.5116272	1.0
99	-80.76699829	-4.885000229	-38.06000137	6.226477146	19.00424385	128.5677795	1.0
100	-80.76699829	-4.885000229	-38.06000137	4.035812855	17.41831017	119.5037766	1.0
[RightHandPinky2]
97	-36	0	0.0009999999311	16.42278671	-3.339953899	126.458725	1.0
98	-36	0	0.0009999999311	16.47361946	-2.573080063	122.4769363	1.0
99	-36	0	0.0009999999311	16.25939369	-0.7019425035	112.3993912	1.0
100	-36	0	0.0009999999311	15.41092682	1.740741491	98.39635468	1.0
[RightHandPinky3]
97	-21.14200211	0	0	-1.590277359e-15	0	-7.951386796e-16	1.0
98	-21.14200211	0	0	-1.590277359e-15	0	-7.951386796e-16	1.0
99	-21.14200211	0	0	-1.590277359e-15	0	-7.951386796e-16	1.0
100	-21.14200211	0	0	-1.590277359e-15	0	-7.951386796e-16	1.0
[RightHandPinky4]
97	-19.75699997	0	0	0	0	0	1.0
98	-19.75699997	0	0	0	0	0	1.0
99	-19.75699997	0	0	0	0	0	1.0
100	-19.75699997	0	0	0	0	0	1.0
[RightHandRing1]
97	-91.03599548	-0.4390000105	-18.65100098	2.936623812	13.86778164	132.0503082	1.0
98	-91.03599548	-0.4390000105	-18.65100098	2.814810038	13.6058836	132.1333923	1.0
99	-91.03599548	-0.4390000105	-18.65100098	1.692142963	12.92703152	126.4624252	1.0
100	-91.03599548	-0.4390000105	-18.65100098	-0.1253025979	11.80343056	116.8493576	1.0
[RightHandRing2]
97	-31.54000092	0	0	11.22642326	1.371263504	120.2490311	1.0
98	-31.54000092	0	0	11.05558968	1.626660824	117.3920288	1.0
99	-31.54000092	0	0	10.42624474	2.388575077	108.2271729	1.0
100	-31.54000092	0	0	9.235298157	3.347159863	94.0273056	1.0
[RightHandRing3]
97	-29.37700081	0	0	5.740008078e-07	-7.531911024e-07	-2.69121324e-06	1.0
98	-29.37700081	0	0	5.740008078e-07	-7.531911024e-07	-2.69121324e-06	1.0
99	-29.37700081	0	0	5.740008078e-07	-7.531911024e-07	-2.69121324e-06	1.0
100	-29.37700081	0	0	5.740008078e-07	-7.531911024e-07	-2.69121324e-06	1.0
[RightHandRing4]
97	-26.47500038	0	0	0	0	0	1.0
98	-26.47500038	0	0	0	0	0	1.0
99	-26.47500038	0	0	0	0	0	1.0
100	-26.47500038	0	0	0	0	0	1.0
[RightHandMiddle1]
97	-95.32500458	0	0	2.70355773	9.192869186	124.1682892	1.0
98	-95.32500458	0	0	2.777745247	9.214489937	124.7510529	1.0
99	-95.32500458	0	0	2.186100245	9.018530846	120.0149384	1.0
100	-95.32500458	0	0	1.158529401	8.540546417	111.4184799	1.0
[RightHandMiddle2]
97	-36.98199844	0	0	4.008402824	9.054567337	135.8551025	1.0
98	-36.98199844	0	0	3.638321161	9.071694374	132.3423157	1.0
99	-36.98199844	0	0	2.522469759	8.97522831	121.7420578	1.0
100	-36.98199844	0	0	0.8951979876	8.432847977	105.4982758	1.0
[RightHandMiddle3]
97	-29.50900078	0	0	1.856611448e-06	-0.002022909233	1.577868488e-06	1.0
98	-29.50900078	0	0	1.856611448e-06	-0.002022909233	1.577868488e-06	1.0
99	-29.50900078	0	0	1.856611448e-06	-0.002022909233	1.577868488e-06	1.0
100	-29.50900078	0	0	1.856611448e-06	-0.002022909233	1.577868488e-06	1.0
[RightHandMiddle4]
97	-28.3390007	0	0.0009999999311	0	0	0	1.0
98	-28.3390007	0	0.0009999999311	0	0	0	1.0
99	-28.3390007	0	0.0009999999311	0	0	0	1.0
100	-28.3390007	0	0.0009999999311	0	0	0	1.0
[RightHandIndex1]
97	-91.08300018	-5.167999744	22.60099792	4.380009651	1.283270955	129.2672272	1.0
98	-91.08300018	-5.167999744	22.60099792	4.32288456	1.287477493	130.1552734	1.0
99	-91.08300018	-5.167999744	22.60099792	3.755797386	1.284521818	125.8820114	1.0
100	-91.08300018	-5.167999744	22.60099792	2.832062244	1.131513596	117.3822174	1.0
[RightHandIndex2]
97	-36.76399994	0	0	3.615104198	9.706571579	141.5851135	1.0
98	-36.76399994	0	0	3.101909876	9.688889503	137.5381165	1.0
99	-36.76399994	0	0	1.640050173	9.421738625	125.8330536	1.0
100	-36.76399994	0	0	-0.3997116089	8.462628365	108.0631027	1.0
[RightHandIndex3]
97	-28.83100128	0	0	-3.180554719e-15	0	0	1.0
98	-28.83100128	0	0	-3.180554719e-15	0	0	1.0
99	-28.83100128	0	0	-3.180554719e-15	0	0	1.0
100	-28.83100128	0	0	-3.180554719e-15	0	0	1.0
[RightHandIndex4]
97	-23.92700005	0	0	0	0	0	1.0
98	-23.92700005	0	0	0	0	0	1.0
99	-23.92700005	0	0	0	0	0	1.0
100	-23.92700005	0	0	0	0	0	1.0
[RightHandThumb1]
97	-24.64799881	-15.72700024	26.82600021	14.75577641	20.59800148	3.523177147	1.0
98	-24.64799881	-15.72700024	26.82600021	12.30470467	17.50863838	5.684314251	1.0
99	-24.64799881	-15.72700024	26.82600021	9.612306595	14.64400005	7.168875217	1.0
100	-24.64799881	-15.72700024	26.82600021	6.864560127	12.13455582	8.026420593	1.0
[RightHandThumb2]
97	-32.29800034	-18.64699936	18.64699936	-10.61661339	-47.44877625	65.40433502	1.0
98	-32.29800034	-18.64699936	18.64699936	-7.133458138	-47.26144028	57.99753571	1.0
99	-32.29800034	-18.64699936	18.64699936	-3.356114149	-44.87175751	49.97230911	1.0
100	-32.29800034	-18.64699936	18.64699936	-0.4790721238	-40.63365936	42.41906357	1.0
[RightHandThumb3]
97	-26.52600098	-15.31399918	15.31399918	-3.81245151e-08	-0.00121095567	-0.001221005921	1.0
98	-26.52600098	-15.31399918	15.31399918	-3.81245151e-08	-0.00121095567	-0.001221005921	1.0
99	-26.52600098	-15.31399918	15.31399918	-3.81245151e-08	-0.00121095567	-0.001221005921	1.0
100	-26.52600098	-15.31399918	15.31399918	-3.81245151e-08	-0.00121095567	-0.001221005921	1.0
[RightHandThumb4]
97	-19.54599953	-11.28499985	11.28499985	0	0	0	1.0
98	-19.54599953	-11.28499985	11.28499985	0	0	0	1.0
99	-19.54599953	-11.28499985	11.28499985	0	0	0	1.0
100	-19.54599953	-11.28499985	11.28499985	0	0	0	1.0
[LeftUpLeg]
97	82.07800293	-67.51699829	-15.99599934	-9.906349182	12.88172245	20.07475471	1.0
98	82.07800293	-67.51699829	-15.99599934	-20.02472496	6.793900013	13.91905212	1.0
99	82.07800293	-67.51699829	-15.99599934	-27.7473793	-0.05226105824	8.544586182	1.0
100	82.07800293	-67.51699829	-15.99599934	-34.08802032	-6.446462154	5.61269331	1.0
[LeftLeg]
97	0	-443.7049866	2.845999956	38.21509171	-16.9573822	-0.7322812676	1.0
98	0	-443.7049866	2.845999956	44.18240738	-16.53700447	-2.08932519	1.0
99	0	-443.7049866	2.845999956	44.04567719	-15.77728081	-1.888123512	1.0
100	0	-443.7049866	2.845999956	43.87874222	-14.60865116	-0.574003756	1.0
[LeftFoot]
97	0	-444.2789917	-29.8219986	-1.25780654	-33.22330856	-23.52750969	1.0
98	0	-444.2789917	-29.8219986	-1.558774829	-33.46951294	-19.67186546	1.0
99	0	-444.2789917	-29.8219986	-0.0712402612	-32.31928253	-16.73254013	1.0
100	0	-444.2789917	-29.8219986	-0.196610406	-31.29636002	-14.09893417	1.0
[LeftToeBase]
97	0	-87.28699493	107.1060028	0.4186835587	8.49794742e-06	6.798742106e-06	1.0
98	0	-87.28699493	107.1060028	0.3900952339	-0.0005450737663	0.07343295962	1.0
99	0	-87.28699493	107.1060028	-1.579547048	9.758995475e-06	2.463097189e-06	1.0
100	0	-87.28699493	107.1060028	-1.384161115	-1.083920142e-05	-2.768940021e-06	1.0
[RightUpLeg]
97	-82.07800293	-67.51699829	-15.99599934	23.13858986	-21.78572083	-22.0091114	1.0
98	-82.07800293	-67.51699829	-15.99599934	27.14779091	-20.68693352	-17.10883522	1.0
99	-82.07800293	-67.51699829	-15.99599934	25.34823036	-22.18132973	-12.67417526	1.0
100	-82.07800293	-67.51699829	-15.99599934	21.43986893	-24.4325695	-10.311759	1.0
[RightLeg]
97	0	-443.7049866	2.861999989	37.06147003	-6.388516426	-7.536480904	1.0
98	0	-443.7049866	2.861999989	36.11426544	-5.763153553	-4.006453037	1.0
99	0	-443.7049866	2.861999989	35.99462891	-9.738624573	-3.451951265	1.0
100	0	-443.7049866	2.861999989	37.36497498	-12.86248207	-1.254628181	1.0
[RightFoot]
97	0	-444.2770081	-29.83799934	-19.64999008	-3.795509577	23.05002975	1.0
98	0	-444.2770081	-29.83799934	-20.42998314	-3.677689075	22.14486122	1.0
99	0	-444.2770081	-29.83799934	-22.8089695	-4.616727829	21.56210327	1.0
100	0	-444.2770081	-29.83799934	-29.68508339	-8.335639954	20.87541962	1.0
[RightToeBase]
97	0	-87.28699493	107.1060028	-9.068469048	-1.404120667e-06	6.690506325e-06	1.0
98	0	-87.28699493	107.1060028	-14.14156532	0.07893238962	0.3247164786	1.0
99	0	-87.28699493	107.1060028	-15.6343689	-0.06369375437	-0.237654835	1.0
100	0	-87.28699493	107.1060028	-15.12866783	-1.555173071e-06	8.990884339e-07	1.0
[EndOfFile]
